<svg xmlns="http://www.w3.org/2000/svg" xmlns:xlink="http://www.w3.org/1999/xlink" id="body_1" preserveAspectRatio="xMinYMin meet" viewBox="0 0 1093 1547"><defs><clipPath id="1"><path d="M0 1160L0 0L0 0L820 0L820 0L820 1160L820 1160L0 1160z" /></clipPath><clipPath id="2"><path d="M0 0L820 0L820 0L820 1160L820 1160L0 1160L0 1160L0 0z" /></clipPath><clipPath id="3"><path d="M0 0L820 0L820 0L820 1160L820 1160L0 1160L0 1160L0 0z" /></clipPath><clipPath id="4"><path d="M30 0L670 0L670 0L670 82L670 82L30 82L30 82L30 0z" /></clipPath><clipPath id="5"><path d="M0 0L820 0L820 0L820 1160L820 1160L0 1160L0 1160L0 0z" /></clipPath><clipPath id="6"><path d="M0 0L820 0L820 0L820 1160L820 1160L0 1160L0 1160L0 0z" /></clipPath><clipPath id="7"><path d="M30 0L670 0L670 0L670 82L670 82L30 82L30 82L30 0z" /></clipPath><clipPath id="8"><path d="M0 0L820 0L820 0L820 1160L820 1160L0 1160L0 1160L0 0z" /></clipPath><clipPath id="9"><path d="M0 0L820 0L820 0L820 1160L820 1160L0 1160L0 1160L0 0z" /></clipPath><clipPath id="10"><path d="M30 0L670 0L670 0L670 82L670 82L30 82L30 82L30 0z" /></clipPath><clipPath id="11"><path d="M0 0L820 0L820 0L820 1160L820 1160L0 1160L0 1160L0 0z" /></clipPath><clipPath id="12"><path d="M0 0L820 0L820 0L820 1160L820 1160L0 1160L0 1160L0 0z" /></clipPath><clipPath id="13"><path d="M30 0L670 0L670 0L670 82L670 82L30 82L30 82L30 0z" /></clipPath><clipPath id="14"><path d="M0 0L820 0L820 0L820 1160L820 1160L0 1160L0 1160L0 0z" /></clipPath><clipPath id="15"><path d="M0 0L820 0L820 0L820 1160L820 1160L0 1160L0 1160L0 0z" /></clipPath><clipPath id="16"><path d="M474 82L492 82L492 82L492 100L492 100L474 100L474 100L474 82z" /></clipPath><clipPath id="17"><path d="M0 0L820 0L820 0L820 1160L820 1160L0 1160L0 1160L0 0z" /></clipPath><clipPath id="18"><path d="M0 0L820 0L820 0L820 1160L820 1160L0 1160L0 1160L0 0z" /></clipPath><clipPath id="19"><path d="M485 88L497 88L497 88L497 100L497 100L485 100L485 100L485 88z" /></clipPath><clipPath id="20"><path d="M0 0L820 0L820 0L820 1160L820 1160L0 1160L0 1160L0 0z" /></clipPath><clipPath id="21"><path d="M0 0L820 0L820 0L820 1160L820 1160L0 1160L0 1160L0 0z" /></clipPath><clipPath id="22"><path d="M106 112L156 112L156 112L156 136L156 136L106 136L106 136L106 112z" /></clipPath><clipPath id="23"><path d="M0 0L820 0L820 0L820 1160L820 1160L0 1160L0 1160L0 0z" /></clipPath><clipPath id="24"><path d="M0 0L820 0L820 0L820 1160L820 1160L0 1160L0 1160L0 0z" /></clipPath><clipPath id="25"><path d="M106 112L156 112L156 112L156 136L156 136L106 136L106 136L106 112z" /></clipPath><clipPath id="26"><path d="M0 0L820 0L820 0L820 1160L820 1160L0 1160L0 1160L0 0z" /></clipPath><clipPath id="27"><path d="M0 0L820 0L820 0L820 1160L820 1160L0 1160L0 1160L0 0z" /></clipPath><clipPath id="28"><path d="M106 112L156 112L156 112L156 136L156 136L106 136L106 136L106 112z" /></clipPath><clipPath id="29"><path d="M0 0L820 0L820 0L820 1160L820 1160L0 1160L0 1160L0 0z" /></clipPath><clipPath id="30"><path d="M106 112L156 112L156 112L156 136L156 136L106 136L106 136L106 112z" /></clipPath><clipPath id="31"><path d="M127.2764 110.8683L146.3683 91.77637L146.3683 91.77637L181.7236 127.1317L181.7236 127.1317L162.6317 146.2236L162.6317 146.2236L127.2764 110.8683z" /></clipPath><clipPath id="32"><path d="M0 0L820 0L820 0L820 1160L820 1160L0 1160L0 1160L0 0z" /></clipPath><clipPath id="33"><path d="M0 0L820 0L820 0L820 1160L820 1160L0 1160L0 1160L0 0z" /></clipPath><clipPath id="34"><path d="M106 112L156 112L156 112L156 136L156 136L106 136L106 136L106 112z" /></clipPath><clipPath id="35"><path d="M0 0L820 0L820 0L820 1160L820 1160L0 1160L0 1160L0 0z" /></clipPath><clipPath id="36"><path d="M106 112L156 112L156 112L156 136L156 136L106 136L106 136L106 112z" /></clipPath><clipPath id="37"><path d="M164.0459 110.8683L164.7531 110.1611L164.7531 110.1611L181.7236 127.1317L181.7236 127.1317L181.0165 127.8389L181.0165 127.8389L164.0459 110.8683z" /></clipPath><clipPath id="38"><path d="M0 0L820 0L820 0L820 1160L820 1160L0 1160L0 1160L0 0z" /></clipPath><clipPath id="39"><path d="M0 0L820 0L820 0L820 1160L820 1160L0 1160L0 1160L0 0z" /></clipPath><clipPath id="40"><path d="M106 112L156 112L156 112L156 136L156 136L106 136L106 136L106 112z" /></clipPath><clipPath id="41"><path d="M0 0L820 0L820 0L820 1160L820 1160L0 1160L0 1160L0 0z" /></clipPath><clipPath id="42"><path d="M0 0L820 0L820 0L820 1160L820 1160L0 1160L0 1160L0 0z" /></clipPath><clipPath id="43"><path d="M106 112L156 112L156 112L156 136L156 136L106 136L106 136L106 112z" /></clipPath><clipPath id="44"><path d="M0 0L820 0L820 0L820 1160L820 1160L0 1160L0 1160L0 0z" /></clipPath><clipPath id="45"><path d="M0 0L820 0L820 0L820 1160L820 1160L0 1160L0 1160L0 0z" /></clipPath><clipPath id="46"><path d="M15 136L31 136L31 136L31 145L31 145L15 145L15 145L15 136z" /></clipPath><clipPath id="47"><path d="M0 0L820 0L820 0L820 1160L820 1160L0 1160L0 1160L0 0z" /></clipPath><clipPath id="48"><path d="M0 0L820 0L820 0L820 1160L820 1160L0 1160L0 1160L0 0z" /></clipPath><clipPath id="49"><path d="M51 150L641 150L641 150L641 250L641 250L51 250L51 250L51 150z" /></clipPath><clipPath id="50"><path d="M0 0L820 0L820 0L820 1160L820 1160L0 1160L0 1160L0 0z" /></clipPath><clipPath id="51"><path d="M0 0L820 0L820 0L820 1160L820 1160L0 1160L0 1160L0 0z" /></clipPath><clipPath id="52"><path d="M51 150L641 150L641 150L641 250L641 250L51 250L51 250L51 150z" /></clipPath><clipPath id="53"><path d="M0 0L820 0L820 0L820 1160L820 1160L0 1160L0 1160L0 0z" /></clipPath><clipPath id="54"><path d="M0 0L820 0L820 0L820 1160L820 1160L0 1160L0 1160L0 0z" /></clipPath><clipPath id="55"><path d="M51 150L641 150L641 150L641 250L641 250L51 250L51 250L51 150z" /></clipPath><clipPath id="56"><path d="M0 0L820 0L820 0L820 1160L820 1160L0 1160L0 1160L0 0z" /></clipPath><clipPath id="57"><path d="M0 0L820 0L820 0L820 1160L820 1160L0 1160L0 1160L0 0z" /></clipPath><clipPath id="58"><path d="M51 150L641 150L641 150L641 250L641 250L51 250L51 250L51 150z" /></clipPath><clipPath id="59"><path d="M0 0L820 0L820 0L820 1160L820 1160L0 1160L0 1160L0 0z" /></clipPath><clipPath id="60"><path d="M0 0L820 0L820 0L820 1160L820 1160L0 1160L0 1160L0 0z" /></clipPath><clipPath id="61"><path d="M51 302L780 302L780 302L780 324L780 324L51 324L51 324L51 302z" /></clipPath><clipPath id="62"><path d="M0 0L820 0L820 0L820 1160L820 1160L0 1160L0 1160L0 0z" /></clipPath><clipPath id="63"><path d="M0 0L820 0L820 0L820 1160L820 1160L0 1160L0 1160L0 0z" /></clipPath><clipPath id="64"><path d="M51 302L780 302L780 302L780 324L780 324L51 324L51 324L51 302z" /></clipPath><clipPath id="65"><path d="M0 0L820 0L820 0L820 1160L820 1160L0 1160L0 1160L0 0z" /></clipPath><clipPath id="66"><path d="M0 0L820 0L820 0L820 1160L820 1160L0 1160L0 1160L0 0z" /></clipPath><clipPath id="67"><path d="M51 302L780 302L780 302L780 324L780 324L51 324L51 324L51 302z" /></clipPath><clipPath id="68"><path d="M0 0L820 0L820 0L820 1160L820 1160L0 1160L0 1160L0 0z" /></clipPath><clipPath id="69"><path d="M0 0L820 0L820 0L820 1160L820 1160L0 1160L0 1160L0 0z" /></clipPath><clipPath id="70"><path d="M51 302L780 302L780 302L780 324L780 324L51 324L51 324L51 302z" /></clipPath><clipPath id="71"><path d="M0 0L820 0L820 0L820 1160L820 1160L0 1160L0 1160L0 0z" /></clipPath><clipPath id="72"><path d="M0 0L820 0L820 0L820 1160L820 1160L0 1160L0 1160L0 0z" /></clipPath><clipPath id="73"><path d="M106 264L156 264L156 264L156 288L156 288L106 288L106 288L106 264z" /></clipPath><clipPath id="74"><path d="M0 0L820 0L820 0L820 1160L820 1160L0 1160L0 1160L0 0z" /></clipPath><clipPath id="75"><path d="M0 0L820 0L820 0L820 1160L820 1160L0 1160L0 1160L0 0z" /></clipPath><clipPath id="76"><path d="M106 264L156 264L156 264L156 288L156 288L106 288L106 288L106 264z" /></clipPath><clipPath id="77"><path d="M0 0L820 0L820 0L820 1160L820 1160L0 1160L0 1160L0 0z" /></clipPath><clipPath id="78"><path d="M0 0L820 0L820 0L820 1160L820 1160L0 1160L0 1160L0 0z" /></clipPath><clipPath id="79"><path d="M106 264L156 264L156 264L156 288L156 288L106 288L106 288L106 264z" /></clipPath><clipPath id="80"><path d="M0 0L820 0L820 0L820 1160L820 1160L0 1160L0 1160L0 0z" /></clipPath><clipPath id="81"><path d="M106 264L156 264L156 264L156 288L156 288L106 288L106 288L106 264z" /></clipPath><clipPath id="82"><path d="M127.2764 262.8683L146.3683 243.7764L146.3683 243.7764L181.7236 279.1317L181.7236 279.1317L162.6317 298.2236L162.6317 298.2236L127.2764 262.8683z" /></clipPath><clipPath id="83"><path d="M0 0L820 0L820 0L820 1160L820 1160L0 1160L0 1160L0 0z" /></clipPath><clipPath id="84"><path d="M0 0L820 0L820 0L820 1160L820 1160L0 1160L0 1160L0 0z" /></clipPath><clipPath id="85"><path d="M106 264L156 264L156 264L156 288L156 288L106 288L106 288L106 264z" /></clipPath><clipPath id="86"><path d="M0 0L820 0L820 0L820 1160L820 1160L0 1160L0 1160L0 0z" /></clipPath><clipPath id="87"><path d="M106 264L156 264L156 264L156 288L156 288L106 288L106 288L106 264z" /></clipPath><clipPath id="88"><path d="M164.0459 262.8683L164.7531 262.1611L164.7531 262.1611L181.7236 279.1317L181.7236 279.1317L181.0165 279.8389L181.0165 279.8389L164.0459 262.8683z" /></clipPath><clipPath id="89"><path d="M0 0L820 0L820 0L820 1160L820 1160L0 1160L0 1160L0 0z" /></clipPath><clipPath id="90"><path d="M0 0L820 0L820 0L820 1160L820 1160L0 1160L0 1160L0 0z" /></clipPath><clipPath id="91"><path d="M106 264L156 264L156 264L156 288L156 288L106 288L106 288L106 264z" /></clipPath><clipPath id="92"><path d="M0 0L820 0L820 0L820 1160L820 1160L0 1160L0 1160L0 0z" /></clipPath><clipPath id="93"><path d="M0 0L820 0L820 0L820 1160L820 1160L0 1160L0 1160L0 0z" /></clipPath><clipPath id="94"><path d="M106 264L156 264L156 264L156 288L156 288L106 288L106 288L106 264z" /></clipPath><clipPath id="95"><path d="M0 0L820 0L820 0L820 1160L820 1160L0 1160L0 1160L0 0z" /></clipPath><clipPath id="96"><path d="M0 0L820 0L820 0L820 1160L820 1160L0 1160L0 1160L0 0z" /></clipPath><clipPath id="97"><path d="M15 288L31 288L31 288L31 297L31 297L15 297L15 297L15 288z" /></clipPath><clipPath id="98"><path d="M0 0L820 0L820 0L820 1160L820 1160L0 1160L0 1160L0 0z" /></clipPath><clipPath id="99"><path d="M0 0L820 0L820 0L820 1160L820 1160L0 1160L0 1160L0 0z" /></clipPath><clipPath id="100"><path d="M51 422L780 422L780 422L780 444L780 444L51 444L51 444L51 422z" /></clipPath><clipPath id="101"><path d="M0 0L820 0L820 0L820 1160L820 1160L0 1160L0 1160L0 0z" /></clipPath><clipPath id="102"><path d="M0 0L820 0L820 0L820 1160L820 1160L0 1160L0 1160L0 0z" /></clipPath><clipPath id="103"><path d="M51 456L780 456L780 456L780 478L780 478L51 478L51 478L51 456z" /></clipPath><clipPath id="104"><path d="M0 0L820 0L820 0L820 1160L820 1160L0 1160L0 1160L0 0z" /></clipPath><clipPath id="105"><path d="M0 0L820 0L820 0L820 1160L820 1160L0 1160L0 1160L0 0z" /></clipPath><clipPath id="106"><path d="M51 490L780 490L780 490L780 512L780 512L51 512L51 512L51 490z" /></clipPath><clipPath id="107"><path d="M0 0L820 0L820 0L820 1160L820 1160L0 1160L0 1160L0 0z" /></clipPath><clipPath id="108"><path d="M0 0L820 0L820 0L820 1160L820 1160L0 1160L0 1160L0 0z" /></clipPath><clipPath id="109"><path d="M51 524L780 524L780 524L780 546L780 546L51 546L51 546L51 524z" /></clipPath><clipPath id="110"><path d="M0 0L820 0L820 0L820 1160L820 1160L0 1160L0 1160L0 0z" /></clipPath><clipPath id="111"><path d="M0 0L820 0L820 0L820 1160L820 1160L0 1160L0 1160L0 0z" /></clipPath><clipPath id="112"><path d="M51 558L780 558L780 558L780 580L780 580L51 580L51 580L51 558z" /></clipPath><clipPath id="113"><path d="M0 0L820 0L820 0L820 1160L820 1160L0 1160L0 1160L0 0z" /></clipPath><clipPath id="114"><path d="M0 0L820 0L820 0L820 1160L820 1160L0 1160L0 1160L0 0z" /></clipPath><clipPath id="115"><path d="M51 592L780 592L780 592L780 614L780 614L51 614L51 614L51 592z" /></clipPath><clipPath id="116"><path d="M0 0L820 0L820 0L820 1160L820 1160L0 1160L0 1160L0 0z" /></clipPath><clipPath id="117"><path d="M0 0L820 0L820 0L820 1160L820 1160L0 1160L0 1160L0 0z" /></clipPath><clipPath id="118"><path d="M51 626L780 626L780 626L780 648L780 648L51 648L51 648L51 626z" /></clipPath><clipPath id="119"><path d="M0 0L820 0L820 0L820 1160L820 1160L0 1160L0 1160L0 0z" /></clipPath><clipPath id="120"><path d="M0 0L820 0L820 0L820 1160L820 1160L0 1160L0 1160L0 0z" /></clipPath><clipPath id="121"><path d="M51 422L780 422L780 422L780 444L780 444L51 444L51 444L51 422z" /></clipPath><clipPath id="122"><path d="M0 0L820 0L820 0L820 1160L820 1160L0 1160L0 1160L0 0z" /></clipPath><clipPath id="123"><path d="M0 0L820 0L820 0L820 1160L820 1160L0 1160L0 1160L0 0z" /></clipPath><clipPath id="124"><path d="M51 456L780 456L780 456L780 478L780 478L51 478L51 478L51 456z" /></clipPath><clipPath id="125"><path d="M0 0L820 0L820 0L820 1160L820 1160L0 1160L0 1160L0 0z" /></clipPath><clipPath id="126"><path d="M0 0L820 0L820 0L820 1160L820 1160L0 1160L0 1160L0 0z" /></clipPath><clipPath id="127"><path d="M51 490L780 490L780 490L780 512L780 512L51 512L51 512L51 490z" /></clipPath><clipPath id="128"><path d="M0 0L820 0L820 0L820 1160L820 1160L0 1160L0 1160L0 0z" /></clipPath><clipPath id="129"><path d="M0 0L820 0L820 0L820 1160L820 1160L0 1160L0 1160L0 0z" /></clipPath><clipPath id="130"><path d="M51 524L780 524L780 524L780 546L780 546L51 546L51 546L51 524z" /></clipPath><clipPath id="131"><path d="M0 0L820 0L820 0L820 1160L820 1160L0 1160L0 1160L0 0z" /></clipPath><clipPath id="132"><path d="M0 0L820 0L820 0L820 1160L820 1160L0 1160L0 1160L0 0z" /></clipPath><clipPath id="133"><path d="M51 558L780 558L780 558L780 580L780 580L51 580L51 580L51 558z" /></clipPath><clipPath id="134"><path d="M0 0L820 0L820 0L820 1160L820 1160L0 1160L0 1160L0 0z" /></clipPath><clipPath id="135"><path d="M0 0L820 0L820 0L820 1160L820 1160L0 1160L0 1160L0 0z" /></clipPath><clipPath id="136"><path d="M51 592L780 592L780 592L780 614L780 614L51 614L51 614L51 592z" /></clipPath><clipPath id="137"><path d="M0 0L820 0L820 0L820 1160L820 1160L0 1160L0 1160L0 0z" /></clipPath><clipPath id="138"><path d="M0 0L820 0L820 0L820 1160L820 1160L0 1160L0 1160L0 0z" /></clipPath><clipPath id="139"><path d="M51 626L780 626L780 626L780 648L780 648L51 648L51 648L51 626z" /></clipPath><clipPath id="140"><path d="M0 0L820 0L820 0L820 1160L820 1160L0 1160L0 1160L0 0z" /></clipPath><clipPath id="141"><path d="M0 0L820 0L820 0L820 1160L820 1160L0 1160L0 1160L0 0z" /></clipPath><clipPath id="142"><path d="M51 422L780 422L780 422L780 444L780 444L51 444L51 444L51 422z" /></clipPath><clipPath id="143"><path d="M0 0L820 0L820 0L820 1160L820 1160L0 1160L0 1160L0 0z" /></clipPath><clipPath id="144"><path d="M0 0L820 0L820 0L820 1160L820 1160L0 1160L0 1160L0 0z" /></clipPath><clipPath id="145"><path d="M51 456L780 456L780 456L780 478L780 478L51 478L51 478L51 456z" /></clipPath><clipPath id="146"><path d="M0 0L820 0L820 0L820 1160L820 1160L0 1160L0 1160L0 0z" /></clipPath><clipPath id="147"><path d="M0 0L820 0L820 0L820 1160L820 1160L0 1160L0 1160L0 0z" /></clipPath><clipPath id="148"><path d="M51 490L780 490L780 490L780 512L780 512L51 512L51 512L51 490z" /></clipPath><clipPath id="149"><path d="M0 0L820 0L820 0L820 1160L820 1160L0 1160L0 1160L0 0z" /></clipPath><clipPath id="150"><path d="M0 0L820 0L820 0L820 1160L820 1160L0 1160L0 1160L0 0z" /></clipPath><clipPath id="151"><path d="M51 524L780 524L780 524L780 546L780 546L51 546L51 546L51 524z" /></clipPath><clipPath id="152"><path d="M0 0L820 0L820 0L820 1160L820 1160L0 1160L0 1160L0 0z" /></clipPath><clipPath id="153"><path d="M0 0L820 0L820 0L820 1160L820 1160L0 1160L0 1160L0 0z" /></clipPath><clipPath id="154"><path d="M51 558L780 558L780 558L780 580L780 580L51 580L51 580L51 558z" /></clipPath><clipPath id="155"><path d="M0 0L820 0L820 0L820 1160L820 1160L0 1160L0 1160L0 0z" /></clipPath><clipPath id="156"><path d="M0 0L820 0L820 0L820 1160L820 1160L0 1160L0 1160L0 0z" /></clipPath><clipPath id="157"><path d="M51 592L780 592L780 592L780 614L780 614L51 614L51 614L51 592z" /></clipPath><clipPath id="158"><path d="M0 0L820 0L820 0L820 1160L820 1160L0 1160L0 1160L0 0z" /></clipPath><clipPath id="159"><path d="M0 0L820 0L820 0L820 1160L820 1160L0 1160L0 1160L0 0z" /></clipPath><clipPath id="160"><path d="M51 626L780 626L780 626L780 648L780 648L51 648L51 648L51 626z" /></clipPath><clipPath id="161"><path d="M0 0L820 0L820 0L820 1160L820 1160L0 1160L0 1160L0 0z" /></clipPath><clipPath id="162"><path d="M0 0L820 0L820 0L820 1160L820 1160L0 1160L0 1160L0 0z" /></clipPath><clipPath id="163"><path d="M51 422L780 422L780 422L780 444L780 444L51 444L51 444L51 422z" /></clipPath><clipPath id="164"><path d="M0 0L820 0L820 0L820 1160L820 1160L0 1160L0 1160L0 0z" /></clipPath><clipPath id="165"><path d="M0 0L820 0L820 0L820 1160L820 1160L0 1160L0 1160L0 0z" /></clipPath><clipPath id="166"><path d="M51 456L780 456L780 456L780 478L780 478L51 478L51 478L51 456z" /></clipPath><clipPath id="167"><path d="M0 0L820 0L820 0L820 1160L820 1160L0 1160L0 1160L0 0z" /></clipPath><clipPath id="168"><path d="M0 0L820 0L820 0L820 1160L820 1160L0 1160L0 1160L0 0z" /></clipPath><clipPath id="169"><path d="M51 490L780 490L780 490L780 512L780 512L51 512L51 512L51 490z" /></clipPath><clipPath id="170"><path d="M0 0L820 0L820 0L820 1160L820 1160L0 1160L0 1160L0 0z" /></clipPath><clipPath id="171"><path d="M0 0L820 0L820 0L820 1160L820 1160L0 1160L0 1160L0 0z" /></clipPath><clipPath id="172"><path d="M51 524L780 524L780 524L780 546L780 546L51 546L51 546L51 524z" /></clipPath><clipPath id="173"><path d="M0 0L820 0L820 0L820 1160L820 1160L0 1160L0 1160L0 0z" /></clipPath><clipPath id="174"><path d="M0 0L820 0L820 0L820 1160L820 1160L0 1160L0 1160L0 0z" /></clipPath><clipPath id="175"><path d="M51 558L780 558L780 558L780 580L780 580L51 580L51 580L51 558z" /></clipPath><clipPath id="176"><path d="M0 0L820 0L820 0L820 1160L820 1160L0 1160L0 1160L0 0z" /></clipPath><clipPath id="177"><path d="M0 0L820 0L820 0L820 1160L820 1160L0 1160L0 1160L0 0z" /></clipPath><clipPath id="178"><path d="M51 592L780 592L780 592L780 614L780 614L51 614L51 614L51 592z" /></clipPath><clipPath id="179"><path d="M0 0L820 0L820 0L820 1160L820 1160L0 1160L0 1160L0 0z" /></clipPath><clipPath id="180"><path d="M0 0L820 0L820 0L820 1160L820 1160L0 1160L0 1160L0 0z" /></clipPath><clipPath id="181"><path d="M51 626L780 626L780 626L780 648L780 648L51 648L51 648L51 626z" /></clipPath><clipPath id="182"><path d="M0 0L820 0L820 0L820 1160L820 1160L0 1160L0 1160L0 0z" /></clipPath><clipPath id="183"><path d="M0 0L820 0L820 0L820 1160L820 1160L0 1160L0 1160L0 0z" /></clipPath><clipPath id="184"><path d="M106 384L156 384L156 384L156 408L156 408L106 408L106 408L106 384z" /></clipPath><clipPath id="185"><path d="M0 0L820 0L820 0L820 1160L820 1160L0 1160L0 1160L0 0z" /></clipPath><clipPath id="186"><path d="M0 0L820 0L820 0L820 1160L820 1160L0 1160L0 1160L0 0z" /></clipPath><clipPath id="187"><path d="M106 384L156 384L156 384L156 408L156 408L106 408L106 408L106 384z" /></clipPath><clipPath id="188"><path d="M0 0L820 0L820 0L820 1160L820 1160L0 1160L0 1160L0 0z" /></clipPath><clipPath id="189"><path d="M0 0L820 0L820 0L820 1160L820 1160L0 1160L0 1160L0 0z" /></clipPath><clipPath id="190"><path d="M106 384L156 384L156 384L156 408L156 408L106 408L106 408L106 384z" /></clipPath><clipPath id="191"><path d="M0 0L820 0L820 0L820 1160L820 1160L0 1160L0 1160L0 0z" /></clipPath><clipPath id="192"><path d="M106 384L156 384L156 384L156 408L156 408L106 408L106 408L106 384z" /></clipPath><clipPath id="193"><path d="M127.2764 382.8683L146.3683 363.7764L146.3683 363.7764L181.7236 399.1317L181.7236 399.1317L162.6317 418.2236L162.6317 418.2236L127.2764 382.8683z" /></clipPath><clipPath id="194"><path d="M0 0L820 0L820 0L820 1160L820 1160L0 1160L0 1160L0 0z" /></clipPath><clipPath id="195"><path d="M0 0L820 0L820 0L820 1160L820 1160L0 1160L0 1160L0 0z" /></clipPath><clipPath id="196"><path d="M106 384L156 384L156 384L156 408L156 408L106 408L106 408L106 384z" /></clipPath><clipPath id="197"><path d="M0 0L820 0L820 0L820 1160L820 1160L0 1160L0 1160L0 0z" /></clipPath><clipPath id="198"><path d="M106 384L156 384L156 384L156 408L156 408L106 408L106 408L106 384z" /></clipPath><clipPath id="199"><path d="M164.0459 382.8683L164.7531 382.1611L164.7531 382.1611L181.7236 399.1317L181.7236 399.1317L181.0165 399.8389L181.0165 399.8389L164.0459 382.8683z" /></clipPath><clipPath id="200"><path d="M0 0L820 0L820 0L820 1160L820 1160L0 1160L0 1160L0 0z" /></clipPath><clipPath id="201"><path d="M0 0L820 0L820 0L820 1160L820 1160L0 1160L0 1160L0 0z" /></clipPath><clipPath id="202"><path d="M106 384L156 384L156 384L156 408L156 408L106 408L106 408L106 384z" /></clipPath><clipPath id="203"><path d="M0 0L820 0L820 0L820 1160L820 1160L0 1160L0 1160L0 0z" /></clipPath><clipPath id="204"><path d="M0 0L820 0L820 0L820 1160L820 1160L0 1160L0 1160L0 0z" /></clipPath><clipPath id="205"><path d="M106 384L156 384L156 384L156 408L156 408L106 408L106 408L106 384z" /></clipPath><clipPath id="206"><path d="M0 0L820 0L820 0L820 1160L820 1160L0 1160L0 1160L0 0z" /></clipPath><clipPath id="207"><path d="M0 0L820 0L820 0L820 1160L820 1160L0 1160L0 1160L0 0z" /></clipPath><clipPath id="208"><path d="M15 408L31 408L31 408L31 417L31 417L15 417L15 417L15 408z" /></clipPath><clipPath id="209"><path d="M0 0L820 0L820 0L820 1160L820 1160L0 1160L0 1160L0 0z" /></clipPath><clipPath id="210"><path d="M0 0L820 0L820 0L820 1160L820 1160L0 1160L0 1160L0 0z" /></clipPath><clipPath id="211"><path d="M51 700L780 700L780 700L780 722L780 722L51 722L51 722L51 700z" /></clipPath><clipPath id="212"><path d="M0 0L820 0L820 0L820 1160L820 1160L0 1160L0 1160L0 0z" /></clipPath><clipPath id="213"><path d="M0 0L820 0L820 0L820 1160L820 1160L0 1160L0 1160L0 0z" /></clipPath><clipPath id="214"><path d="M51 734L780 734L780 734L780 756L780 756L51 756L51 756L51 734z" /></clipPath><clipPath id="215"><path d="M0 0L820 0L820 0L820 1160L820 1160L0 1160L0 1160L0 0z" /></clipPath><clipPath id="216"><path d="M0 0L820 0L820 0L820 1160L820 1160L0 1160L0 1160L0 0z" /></clipPath><clipPath id="217"><path d="M51 768L780 768L780 768L780 790L780 790L51 790L51 790L51 768z" /></clipPath><clipPath id="218"><path d="M0 0L820 0L820 0L820 1160L820 1160L0 1160L0 1160L0 0z" /></clipPath><clipPath id="219"><path d="M0 0L820 0L820 0L820 1160L820 1160L0 1160L0 1160L0 0z" /></clipPath><clipPath id="220"><path d="M51 700L780 700L780 700L780 722L780 722L51 722L51 722L51 700z" /></clipPath><clipPath id="221"><path d="M0 0L820 0L820 0L820 1160L820 1160L0 1160L0 1160L0 0z" /></clipPath><clipPath id="222"><path d="M0 0L820 0L820 0L820 1160L820 1160L0 1160L0 1160L0 0z" /></clipPath><clipPath id="223"><path d="M51 734L780 734L780 734L780 756L780 756L51 756L51 756L51 734z" /></clipPath><clipPath id="224"><path d="M0 0L820 0L820 0L820 1160L820 1160L0 1160L0 1160L0 0z" /></clipPath><clipPath id="225"><path d="M0 0L820 0L820 0L820 1160L820 1160L0 1160L0 1160L0 0z" /></clipPath><clipPath id="226"><path d="M51 768L780 768L780 768L780 790L780 790L51 790L51 790L51 768z" /></clipPath><clipPath id="227"><path d="M0 0L820 0L820 0L820 1160L820 1160L0 1160L0 1160L0 0z" /></clipPath><clipPath id="228"><path d="M0 0L820 0L820 0L820 1160L820 1160L0 1160L0 1160L0 0z" /></clipPath><clipPath id="229"><path d="M51 700L780 700L780 700L780 722L780 722L51 722L51 722L51 700z" /></clipPath><clipPath id="230"><path d="M0 0L820 0L820 0L820 1160L820 1160L0 1160L0 1160L0 0z" /></clipPath><clipPath id="231"><path d="M0 0L820 0L820 0L820 1160L820 1160L0 1160L0 1160L0 0z" /></clipPath><clipPath id="232"><path d="M51 734L780 734L780 734L780 756L780 756L51 756L51 756L51 734z" /></clipPath><clipPath id="233"><path d="M0 0L820 0L820 0L820 1160L820 1160L0 1160L0 1160L0 0z" /></clipPath><clipPath id="234"><path d="M0 0L820 0L820 0L820 1160L820 1160L0 1160L0 1160L0 0z" /></clipPath><clipPath id="235"><path d="M51 768L780 768L780 768L780 790L780 790L51 790L51 790L51 768z" /></clipPath><clipPath id="236"><path d="M0 0L820 0L820 0L820 1160L820 1160L0 1160L0 1160L0 0z" /></clipPath><clipPath id="237"><path d="M0 0L820 0L820 0L820 1160L820 1160L0 1160L0 1160L0 0z" /></clipPath><clipPath id="238"><path d="M51 700L780 700L780 700L780 722L780 722L51 722L51 722L51 700z" /></clipPath><clipPath id="239"><path d="M0 0L820 0L820 0L820 1160L820 1160L0 1160L0 1160L0 0z" /></clipPath><clipPath id="240"><path d="M0 0L820 0L820 0L820 1160L820 1160L0 1160L0 1160L0 0z" /></clipPath><clipPath id="241"><path d="M51 734L780 734L780 734L780 756L780 756L51 756L51 756L51 734z" /></clipPath><clipPath id="242"><path d="M0 0L820 0L820 0L820 1160L820 1160L0 1160L0 1160L0 0z" /></clipPath><clipPath id="243"><path d="M0 0L820 0L820 0L820 1160L820 1160L0 1160L0 1160L0 0z" /></clipPath><clipPath id="244"><path d="M51 768L780 768L780 768L780 790L780 790L51 790L51 790L51 768z" /></clipPath><clipPath id="245"><path d="M0 0L820 0L820 0L820 1160L820 1160L0 1160L0 1160L0 0z" /></clipPath><clipPath id="246"><path d="M0 0L820 0L820 0L820 1160L820 1160L0 1160L0 1160L0 0z" /></clipPath><clipPath id="247"><path d="M106 662L156 662L156 662L156 686L156 686L106 686L106 686L106 662z" /></clipPath><clipPath id="248"><path d="M0 0L820 0L820 0L820 1160L820 1160L0 1160L0 1160L0 0z" /></clipPath><clipPath id="249"><path d="M0 0L820 0L820 0L820 1160L820 1160L0 1160L0 1160L0 0z" /></clipPath><clipPath id="250"><path d="M106 662L156 662L156 662L156 686L156 686L106 686L106 686L106 662z" /></clipPath><clipPath id="251"><path d="M0 0L820 0L820 0L820 1160L820 1160L0 1160L0 1160L0 0z" /></clipPath><clipPath id="252"><path d="M0 0L820 0L820 0L820 1160L820 1160L0 1160L0 1160L0 0z" /></clipPath><clipPath id="253"><path d="M106 662L156 662L156 662L156 686L156 686L106 686L106 686L106 662z" /></clipPath><clipPath id="254"><path d="M0 0L820 0L820 0L820 1160L820 1160L0 1160L0 1160L0 0z" /></clipPath><clipPath id="255"><path d="M106 662L156 662L156 662L156 686L156 686L106 686L106 686L106 662z" /></clipPath><clipPath id="256"><path d="M127.2764 660.8683L146.3683 641.7764L146.3683 641.7764L181.7236 677.1317L181.7236 677.1317L162.6317 696.2236L162.6317 696.2236L127.2764 660.8683z" /></clipPath><clipPath id="257"><path d="M0 0L820 0L820 0L820 1160L820 1160L0 1160L0 1160L0 0z" /></clipPath><clipPath id="258"><path d="M0 0L820 0L820 0L820 1160L820 1160L0 1160L0 1160L0 0z" /></clipPath><clipPath id="259"><path d="M106 662L156 662L156 662L156 686L156 686L106 686L106 686L106 662z" /></clipPath><clipPath id="260"><path d="M0 0L820 0L820 0L820 1160L820 1160L0 1160L0 1160L0 0z" /></clipPath><clipPath id="261"><path d="M106 662L156 662L156 662L156 686L156 686L106 686L106 686L106 662z" /></clipPath><clipPath id="262"><path d="M164.0459 660.8683L164.7531 660.1612L164.7531 660.1612L181.7236 677.1317L181.7236 677.1317L181.0165 677.8388L181.0165 677.8388L164.0459 660.8683z" /></clipPath><clipPath id="263"><path d="M0 0L820 0L820 0L820 1160L820 1160L0 1160L0 1160L0 0z" /></clipPath><clipPath id="264"><path d="M0 0L820 0L820 0L820 1160L820 1160L0 1160L0 1160L0 0z" /></clipPath><clipPath id="265"><path d="M106 662L156 662L156 662L156 686L156 686L106 686L106 686L106 662z" /></clipPath><clipPath id="266"><path d="M0 0L820 0L820 0L820 1160L820 1160L0 1160L0 1160L0 0z" /></clipPath><clipPath id="267"><path d="M0 0L820 0L820 0L820 1160L820 1160L0 1160L0 1160L0 0z" /></clipPath><clipPath id="268"><path d="M106 662L156 662L156 662L156 686L156 686L106 686L106 686L106 662z" /></clipPath><clipPath id="269"><path d="M0 0L820 0L820 0L820 1160L820 1160L0 1160L0 1160L0 0z" /></clipPath><clipPath id="270"><path d="M0 0L820 0L820 0L820 1160L820 1160L0 1160L0 1160L0 0z" /></clipPath><clipPath id="271"><path d="M15 686L31 686L31 686L31 695L31 695L15 695L15 695L15 686z" /></clipPath><clipPath id="272"><path d="M0 0L820 0L820 0L820 1160L820 1160L0 1160L0 1160L0 0z" /></clipPath><clipPath id="273"><path d="M0 0L820 0L820 0L820 1160L820 1160L0 1160L0 1160L0 0z" /></clipPath><clipPath id="274"><path d="M106 804L156 804L156 804L156 828L156 828L106 828L106 828L106 804z" /></clipPath><clipPath id="275"><path d="M0 0L820 0L820 0L820 1160L820 1160L0 1160L0 1160L0 0z" /></clipPath><clipPath id="276"><path d="M0 0L820 0L820 0L820 1160L820 1160L0 1160L0 1160L0 0z" /></clipPath><clipPath id="277"><path d="M106 804L156 804L156 804L156 828L156 828L106 828L106 828L106 804z" /></clipPath><clipPath id="278"><path d="M0 0L820 0L820 0L820 1160L820 1160L0 1160L0 1160L0 0z" /></clipPath><clipPath id="279"><path d="M0 0L820 0L820 0L820 1160L820 1160L0 1160L0 1160L0 0z" /></clipPath><clipPath id="280"><path d="M106 804L156 804L156 804L156 828L156 828L106 828L106 828L106 804z" /></clipPath><clipPath id="281"><path d="M0 0L820 0L820 0L820 1160L820 1160L0 1160L0 1160L0 0z" /></clipPath><clipPath id="282"><path d="M106 804L156 804L156 804L156 828L156 828L106 828L106 828L106 804z" /></clipPath><clipPath id="283"><path d="M127.2764 802.8683L146.3683 783.7764L146.3683 783.7764L181.7236 819.1317L181.7236 819.1317L162.6317 838.2236L162.6317 838.2236L127.2764 802.8683z" /></clipPath><clipPath id="284"><path d="M0 0L820 0L820 0L820 1160L820 1160L0 1160L0 1160L0 0z" /></clipPath><clipPath id="285"><path d="M0 0L820 0L820 0L820 1160L820 1160L0 1160L0 1160L0 0z" /></clipPath><clipPath id="286"><path d="M106 804L156 804L156 804L156 828L156 828L106 828L106 828L106 804z" /></clipPath><clipPath id="287"><path d="M0 0L820 0L820 0L820 1160L820 1160L0 1160L0 1160L0 0z" /></clipPath><clipPath id="288"><path d="M106 804L156 804L156 804L156 828L156 828L106 828L106 828L106 804z" /></clipPath><clipPath id="289"><path d="M164.0459 802.8683L164.7531 802.1612L164.7531 802.1612L181.7236 819.1317L181.7236 819.1317L181.0165 819.8388L181.0165 819.8388L164.0459 802.8683z" /></clipPath><clipPath id="290"><path d="M0 0L820 0L820 0L820 1160L820 1160L0 1160L0 1160L0 0z" /></clipPath><clipPath id="291"><path d="M0 0L820 0L820 0L820 1160L820 1160L0 1160L0 1160L0 0z" /></clipPath><clipPath id="292"><path d="M106 804L156 804L156 804L156 828L156 828L106 828L106 828L106 804z" /></clipPath><clipPath id="293"><path d="M0 0L820 0L820 0L820 1160L820 1160L0 1160L0 1160L0 0z" /></clipPath><clipPath id="294"><path d="M0 0L820 0L820 0L820 1160L820 1160L0 1160L0 1160L0 0z" /></clipPath><clipPath id="295"><path d="M106 804L156 804L156 804L156 828L156 828L106 828L106 828L106 804z" /></clipPath><clipPath id="296"><path d="M0 0L820 0L820 0L820 1160L820 1160L0 1160L0 1160L0 0z" /></clipPath><clipPath id="297"><path d="M0 0L820 0L820 0L820 1160L820 1160L0 1160L0 1160L0 0z" /></clipPath><clipPath id="298"><path d="M15 828L31 828L31 828L31 837L31 837L15 837L15 837L15 828z" /></clipPath><clipPath id="299"><path d="M0 0L820 0L820 0L820 1160L820 1160L0 1160L0 1160L0 0z" /></clipPath><clipPath id="300"><path d="M0 0L820 0L820 0L820 1160L820 1160L0 1160L0 1160L0 0z" /></clipPath><clipPath id="301"><path d="M106 940L156 940L156 940L156 964L156 964L106 964L106 964L106 940z" /></clipPath><clipPath id="302"><path d="M0 0L820 0L820 0L820 1160L820 1160L0 1160L0 1160L0 0z" /></clipPath><clipPath id="303"><path d="M0 0L820 0L820 0L820 1160L820 1160L0 1160L0 1160L0 0z" /></clipPath><clipPath id="304"><path d="M106 940L156 940L156 940L156 964L156 964L106 964L106 964L106 940z" /></clipPath><clipPath id="305"><path d="M0 0L820 0L820 0L820 1160L820 1160L0 1160L0 1160L0 0z" /></clipPath><clipPath id="306"><path d="M0 0L820 0L820 0L820 1160L820 1160L0 1160L0 1160L0 0z" /></clipPath><clipPath id="307"><path d="M106 940L156 940L156 940L156 964L156 964L106 964L106 964L106 940z" /></clipPath><clipPath id="308"><path d="M0 0L820 0L820 0L820 1160L820 1160L0 1160L0 1160L0 0z" /></clipPath><clipPath id="309"><path d="M106 940L156 940L156 940L156 964L156 964L106 964L106 964L106 940z" /></clipPath><clipPath id="310"><path d="M127.2764 938.8683L146.3683 919.7764L146.3683 919.7764L181.7236 955.1317L181.7236 955.1317L162.6317 974.2236L162.6317 974.2236L127.2764 938.8683z" /></clipPath><clipPath id="311"><path d="M0 0L820 0L820 0L820 1160L820 1160L0 1160L0 1160L0 0z" /></clipPath><clipPath id="312"><path d="M0 0L820 0L820 0L820 1160L820 1160L0 1160L0 1160L0 0z" /></clipPath><clipPath id="313"><path d="M106 940L156 940L156 940L156 964L156 964L106 964L106 964L106 940z" /></clipPath><clipPath id="314"><path d="M0 0L820 0L820 0L820 1160L820 1160L0 1160L0 1160L0 0z" /></clipPath><clipPath id="315"><path d="M106 940L156 940L156 940L156 964L156 964L106 964L106 964L106 940z" /></clipPath><clipPath id="316"><path d="M164.0459 938.8683L164.7531 938.1612L164.7531 938.1612L181.7236 955.1317L181.7236 955.1317L181.0165 955.8388L181.0165 955.8388L164.0459 938.8683z" /></clipPath><clipPath id="317"><path d="M0 0L820 0L820 0L820 1160L820 1160L0 1160L0 1160L0 0z" /></clipPath><clipPath id="318"><path d="M0 0L820 0L820 0L820 1160L820 1160L0 1160L0 1160L0 0z" /></clipPath><clipPath id="319"><path d="M106 940L156 940L156 940L156 964L156 964L106 964L106 964L106 940z" /></clipPath><clipPath id="320"><path d="M0 0L820 0L820 0L820 1160L820 1160L0 1160L0 1160L0 0z" /></clipPath><clipPath id="321"><path d="M0 0L820 0L820 0L820 1160L820 1160L0 1160L0 1160L0 0z" /></clipPath><clipPath id="322"><path d="M106 940L156 940L156 940L156 964L156 964L106 964L106 964L106 940z" /></clipPath><clipPath id="323"><path d="M0 0L820 0L820 0L820 1160L820 1160L0 1160L0 1160L0 0z" /></clipPath><clipPath id="324"><path d="M0 0L820 0L820 0L820 1160L820 1160L0 1160L0 1160L0 0z" /></clipPath><clipPath id="325"><path d="M15 964L31 964L31 964L31 973L31 973L15 973L15 973L15 964z" /></clipPath><clipPath id="326"><path d="M0 0L820 0L820 0L820 1160L820 1160L0 1160L0 1160L0 0z" /></clipPath><clipPath id="327"><path d="M0 0L820 0L820 0L820 1160L820 1160L0 1160L0 1160L0 0z" /></clipPath><clipPath id="328"><path d="M106 1031L156 1031L156 1031L156 1055L156 1055L106 1055L106 1055L106 1031z" /></clipPath><clipPath id="329"><path d="M0 0L820 0L820 0L820 1160L820 1160L0 1160L0 1160L0 0z" /></clipPath><clipPath id="330"><path d="M0 0L820 0L820 0L820 1160L820 1160L0 1160L0 1160L0 0z" /></clipPath><clipPath id="331"><path d="M106 1031L156 1031L156 1031L156 1055L156 1055L106 1055L106 1055L106 1031z" /></clipPath><clipPath id="332"><path d="M0 0L820 0L820 0L820 1160L820 1160L0 1160L0 1160L0 0z" /></clipPath><clipPath id="333"><path d="M0 0L820 0L820 0L820 1160L820 1160L0 1160L0 1160L0 0z" /></clipPath><clipPath id="334"><path d="M106 1031L156 1031L156 1031L156 1055L156 1055L106 1055L106 1055L106 1031z" /></clipPath><clipPath id="335"><path d="M0 0L820 0L820 0L820 1160L820 1160L0 1160L0 1160L0 0z" /></clipPath><clipPath id="336"><path d="M106 1031L156 1031L156 1031L156 1055L156 1055L106 1055L106 1055L106 1031z" /></clipPath><clipPath id="337"><path d="M127.2764 1029.868L146.3683 1010.776L146.3683 1010.776L181.7236 1046.132L181.7236 1046.132L162.6317 1065.224L162.6317 1065.224L127.2764 1029.868z" /></clipPath><clipPath id="338"><path d="M0 0L820 0L820 0L820 1160L820 1160L0 1160L0 1160L0 0z" /></clipPath><clipPath id="339"><path d="M0 0L820 0L820 0L820 1160L820 1160L0 1160L0 1160L0 0z" /></clipPath><clipPath id="340"><path d="M106 1031L156 1031L156 1031L156 1055L156 1055L106 1055L106 1055L106 1031z" /></clipPath><clipPath id="341"><path d="M0 0L820 0L820 0L820 1160L820 1160L0 1160L0 1160L0 0z" /></clipPath><clipPath id="342"><path d="M106 1031L156 1031L156 1031L156 1055L156 1055L106 1055L106 1055L106 1031z" /></clipPath><clipPath id="343"><path d="M164.0459 1029.868L164.7531 1029.161L164.7531 1029.161L181.7236 1046.132L181.7236 1046.132L181.0165 1046.839L181.0165 1046.839L164.0459 1029.868z" /></clipPath><clipPath id="344"><path d="M0 0L820 0L820 0L820 1160L820 1160L0 1160L0 1160L0 0z" /></clipPath><clipPath id="345"><path d="M0 0L820 0L820 0L820 1160L820 1160L0 1160L0 1160L0 0z" /></clipPath><clipPath id="346"><path d="M106 1031L156 1031L156 1031L156 1055L156 1055L106 1055L106 1055L106 1031z" /></clipPath><clipPath id="347"><path d="M0 0L820 0L820 0L820 1160L820 1160L0 1160L0 1160L0 0z" /></clipPath><clipPath id="348"><path d="M0 0L820 0L820 0L820 1160L820 1160L0 1160L0 1160L0 0z" /></clipPath><clipPath id="349"><path d="M106 1031L156 1031L156 1031L156 1055L156 1055L106 1055L106 1055L106 1031z" /></clipPath><clipPath id="350"><path d="M0 0L820 0L820 0L820 1160L820 1160L0 1160L0 1160L0 0z" /></clipPath><clipPath id="351"><path d="M0 0L820 0L820 0L820 1160L820 1160L0 1160L0 1160L0 0z" /></clipPath><clipPath id="352"><path d="M15 1055L31 1055L31 1055L31 1064L31 1064L15 1064L15 1064L15 1055z" /></clipPath><clipPath id="353"><path d="M0 0L820 0L820 0L820 1160L820 1160L0 1160L0 1160L0 0z" /></clipPath><clipPath id="354"><path d="M0 0L820 0L820 0L820 1160L820 1160L0 1160L0 1160L0 0z" /></clipPath><clipPath id="355"><path d="M66 981L120 981C 128.2843 981 135 987.7157 135 996L135 996L135 997C 135 1005.284 128.2843 1012 120 1012L120 1012L66 1012C 57.71572 1012 51 1005.284 51 997L51 997L51 996C 51 987.7157 57.71572 981 66 981z" /></clipPath><clipPath id="356"><path d="M0 0L820 0L820 0L820 1160L820 1160L0 1160L0 1160L0 0z" /></clipPath><clipPath id="357"><path d="M0 0L820 0L820 0L820 1160L820 1160L0 1160L0 1160L0 0z" /></clipPath><clipPath id="358"><path d="M165 981L232 981C 240.2843 981 247 987.7157 247 996L247 996L247 997C 247 1005.284 240.2843 1012 232 1012L232 1012L165 1012C 156.7157 1012 150 1005.284 150 997L150 997L150 996C 150 987.7157 156.7157 981 165 981z" /></clipPath><clipPath id="359"><path d="M0 0L820 0L820 0L820 1160L820 1160L0 1160L0 1160L0 0z" /></clipPath><clipPath id="360"><path d="M0 0L820 0L820 0L820 1160L820 1160L0 1160L0 1160L0 0z" /></clipPath><clipPath id="361"><path d="M277 981L420 981C 428.2843 981 435 987.7157 435 996L435 996L435 997C 435 1005.284 428.2843 1012 420 1012L420 1012L277 1012C 268.7157 1012 262 1005.284 262 997L262 997L262 996C 262 987.7157 268.7157 981 277 981z" /></clipPath><clipPath id="362"><path d="M0 0L820 0L820 0L820 1160L820 1160L0 1160L0 1160L0 0z" /></clipPath><clipPath id="363"><path d="M0 0L820 0L820 0L820 1160L820 1160L0 1160L0 1160L0 0z" /></clipPath><clipPath id="364"><path d="M465 981L675 981C 683.2843 981 690 987.7157 690 996L690 996L690 997C 690 1005.284 683.2843 1012 675 1012L675 1012L465 1012C 456.7157 1012 450 1005.284 450 997L450 997L450 996C 450 987.7157 456.7157 981 465 981z" /></clipPath><clipPath id="365"><path d="M0 0L820 0L820 0L820 1160L820 1160L0 1160L0 1160L0 0z" /></clipPath><clipPath id="366"><path d="M0 0L820 0L820 0L820 1160L820 1160L0 1160L0 1160L0 0z" /></clipPath><clipPath id="367"><path d="M672 138L780 138L780 138L780 282L780 282L672 282L672 282L672 138z" /></clipPath><clipPath id="368"><path d="M0 0L820 0L820 0L820 1160L820 1160L0 1160L0 1160L0 0z" /></clipPath><clipPath id="369"><path d="M0 0L820 0L820 0L820 1160L820 1160L0 1160L0 1160L0 0z" /></clipPath><clipPath id="370"><path d="M672 138L780 138L780 138L780 282L780 282L672 282L672 282L672 138z" /></clipPath><clipPath id="371"><path d="M0 0L820 0L820 0L820 1160L820 1160L0 1160L0 1160L0 0z" /></clipPath></defs><g transform="matrix(1.333333 0 0 1.333333 0 0)"><g><g clip-path="url(#1)"><g clip-path="url(#2)"><path transform="matrix(1 0 0 -1 0 1160)" d="M0 1160L820 1160L820 1160L820 8L820 8L0 8z" stroke="none" fill="#FFFFFF" fill-rule="winding" /></g><g clip-path="url(#3)"><g clip-path="url(#4)"></g></g><g clip-path="url(#5)"><path transform="matrix(1 0 0 -1 0 1160)" d="M30 1060L31 1060L31 1060L31 18L31 18L30 18z" stroke="none" fill="#284967" fill-rule="winding" /></g><g clip-path="url(#6)"><g clip-path="url(#7)"><path transform="matrix(1 0 0 -1 0 1160)" d="M197 1145L199 1145L199 1145L199 1093L199 1093L197 1093z" stroke="none" fill="#284967" fill-rule="winding" /></g></g><g clip-path="url(#8)"><path transform="matrix(1 0 0 -1 0 1160)" d="M700 1135C 711.0457 1135 720 1126.046 720 1115C 720 1103.954 711.0457 1095 700 1095C 688.9543 1095 680 1103.954 680 1115C 680 1126.046 688.9543 1135 700 1135z" stroke="none" fill="#C19F67" fill-rule="evenodd" /><path transform="matrix(1 0 0 -1 0 1160)" d="M709.7188 1108.547C 709.4688 1108.557 709.2656 1108.643 709.1094 1108.805C 708.9531 1108.966 708.8698 1109.172 708.8594 1109.422L708.8594 1109.422L708.8594 1116.266C 708.8698 1116.505 708.9531 1116.703 709.1094 1116.859C 709.2656 1117.016 709.4661 1117.094 709.7109 1117.094C 709.9557 1117.094 710.1614 1117.016 710.3281 1116.859C 710.4948 1116.703 710.5781 1116.505 710.5781 1116.266L710.5781 1116.266L710.5781 1109.422C 710.5781 1109.172 710.4948 1108.966 710.3281 1108.805C 710.1614 1108.643 709.9583 1108.557 709.7188 1108.547zM700 1106.313C 698.1146 1106.313 696.4323 1106.599 694.9531 1107.172C 693.4739 1107.745 692.6563 1108.583 692.5 1109.688L692.5 1109.688L692.5 1109.844L692.5 1109.844L692.5 1116.391C 692.5 1116.63 692.5833 1116.831 692.75 1116.992C 692.9167 1117.154 693.1224 1117.234 693.3672 1117.234C 693.612 1117.234 693.8151 1117.154 693.9766 1116.992C 694.138 1116.831 694.2188 1116.63 694.2188 1116.391L694.2188 1116.391L694.2188 1109.859C 694.25 1109.505 694.7708 1109.122 695.7813 1108.711C 696.7917 1108.299 698.1979 1108.073 700 1108.031C 701.8021 1108.073 703.2083 1108.299 704.2188 1108.711C 705.2292 1109.122 705.75 1109.505 705.7813 1109.859L705.7813 1109.859L705.7813 1116.391C 705.7813 1116.63 705.8646 1116.831 706.0313 1116.992C 706.1979 1117.154 706.4011 1117.234 706.6406 1117.234C 706.8802 1117.234 707.0833 1117.154 707.25 1116.992C 707.4167 1116.831 707.5 1116.63 707.5 1116.391L707.5 1116.391L707.5 1109.766C 707.3854 1108.641 706.5859 1107.784 705.1016 1107.195C 703.6172 1106.607 701.9167 1106.313 700 1106.313zM691.5 1118.984L699.7031 1114.391C 699.7552 1114.359 699.8568 1114.344 700.0078 1114.344C 700.1589 1114.344 700.2552 1114.359 700.2969 1114.391L700.2969 1114.391L708.5156 1118.984L708.5156 1118.984L700.3281 1123.563C 700.2552 1123.604 700.1432 1123.625 699.9922 1123.625C 699.8411 1123.625 699.7448 1123.604 699.7031 1123.563L699.7031 1123.563L691.5 1118.984zM700 1112.609C 699.5729 1112.62 699.1875 1112.714 698.8438 1112.891L698.8438 1112.891L690.0469 1117.828C 689.8073 1117.953 689.6224 1118.117 689.4922 1118.32C 689.362 1118.523 689.2969 1118.745 689.2969 1118.984C 689.3177 1119.474 689.5677 1119.865 690.0469 1120.156L690.0469 1120.156L698.8438 1125.063C 699.1875 1125.25 699.5729 1125.344 700 1125.344C 700.4271 1125.344 700.8125 1125.25 701.1563 1125.063L701.1563 1125.063L709.9688 1120.156C 710.4375 1119.865 710.6719 1119.471 710.6719 1118.977C 710.6719 1118.482 710.4323 1118.099 709.9531 1117.828L709.9531 1117.828L701.1563 1112.891C 700.8125 1112.714 700.4271 1112.62 700 1112.609z" stroke="none" fill="#FFFFFF" fill-rule="winding" /><path transform="matrix(1 0 0 -1 0 1160)" d="M750 1135C 761.0457 1135 770 1126.046 770 1115C 770 1103.954 761.0457 1095 750 1095C 738.9543 1095 730 1103.954 730 1115C 730 1126.046 738.9543 1135 750 1135z" stroke="none" fill="#C19F67" fill-rule="evenodd" /><path transform="matrix(1 0 0 -1 0 1160)" d="M752.2969 1114.719C 752.2864 1114.083 752.0625 1113.555 751.625 1113.133C 751.1875 1112.711 750.6302 1112.495 749.9531 1112.484C 749.2969 1112.495 748.75 1112.711 748.3125 1113.133C 747.875 1113.555 747.6511 1114.083 747.6406 1114.719C 747.6406 1114.802 747.6406 1114.885 747.6406 1114.969L747.6406 1114.969L740.2031 1114.969L740.2031 1114.969L740.2031 1108.469C 740.2136 1107.76 740.4479 1107.177 740.9063 1106.719C 741.3646 1106.26 741.9375 1106.026 742.625 1106.016L742.625 1106.016L757.2813 1106.016C 757.9896 1106.026 758.5729 1106.26 759.0313 1106.719C 759.4896 1107.177 759.7239 1107.76 759.7344 1108.469L759.7344 1108.469L759.7344 1114.969L759.7344 1114.969L752.2813 1114.969C 752.2917 1114.885 752.2969 1114.802 752.2969 1114.719zM749.9531 1113.141C 750.4427 1113.141 750.8516 1113.294 751.1797 1113.602C 751.5078 1113.909 751.6719 1114.297 751.6719 1114.766C 751.6719 1115.234 751.5104 1115.62 751.1875 1115.922C 750.8646 1116.224 750.4583 1116.375 749.9688 1116.375C 749.4792 1116.375 749.0729 1116.224 748.75 1115.922C 748.4271 1115.62 748.2656 1115.234 748.2656 1114.766C 748.2656 1114.297 748.4271 1113.909 748.75 1113.602C 749.0729 1113.294 749.4739 1113.141 749.9531 1113.141zM757.2813 1121.156L742.625 1121.156C 741.9375 1121.146 741.3646 1120.911 740.9063 1120.453C 740.4479 1119.995 740.2136 1119.422 740.2031 1118.734L740.2031 1118.734L740.2031 1115.781L740.2031 1115.781L747.8125 1115.781C 747.9792 1116.198 748.2578 1116.539 748.6484 1116.805C 749.0391 1117.07 749.4844 1117.203 749.9844 1117.203C 750.4844 1117.203 750.9245 1117.07 751.3047 1116.805C 751.6849 1116.539 751.9583 1116.198 752.125 1115.781L752.125 1115.781L759.7344 1115.781L759.7344 1115.781L759.7344 1118.734C 759.7239 1119.422 759.4896 1119.995 759.0313 1120.453C 758.5729 1120.911 757.9896 1121.146 757.2813 1121.156zM747.4375 1123.375C 747.4583 1123.583 747.5391 1123.76 747.6797 1123.906C 747.8203 1124.052 748 1124.125 748.2188 1124.125L748.2188 1124.125L751.7188 1124.125C 751.9375 1124.125 752.1172 1124.052 752.2578 1123.906C 752.3984 1123.76 752.4688 1123.583 752.4688 1123.375L752.4688 1123.375L752.4688 1121.281L752.4688 1121.281L753.7969 1121.281L753.7969 1121.281L753.7969 1123.375C 753.7864 1123.958 753.5833 1124.448 753.1875 1124.844C 752.7917 1125.24 752.3021 1125.443 751.7188 1125.453L751.7188 1125.453L748.2188 1125.453C 747.6146 1125.443 747.1172 1125.24 746.7266 1124.844C 746.3359 1124.448 746.1302 1123.958 746.1094 1123.375L746.1094 1123.375L746.1094 1121.281L746.1094 1121.281L747.4375 1121.281L747.4375 1121.281L747.4375 1123.375z" stroke="none" fill="#FFFFFF" fill-rule="winding" /></g><g clip-path="url(#9)"><g clip-path="url(#10)"></g></g><g clip-path="url(#11)"></g><g clip-path="url(#12)"><g clip-path="url(#13)"></g></g><g clip-path="url(#14)"><path transform="matrix(1 0 0 -1 0 1160)" d="M0 1078L474 1078L474 1078L474 1060L474 1060L0 1060z" stroke="none" fill="#284967" fill-rule="winding" /></g><g clip-path="url(#15)"><g clip-path="url(#16)"><path transform="matrix(1 0 0 -1 0 1160)" d="M474 1078L474 1060L474 1060L492 1060L492 1060L474 1078z" stroke="none" fill="#284967" fill-rule="winding" /></g></g><g clip-path="url(#17)"><path transform="matrix(1 0 0 -1 0 1160)" d="M497 1072L820 1072L820 1072L820 1060L820 1060L497 1060z" stroke="none" fill="#C19F67" fill-rule="winding" /></g><g clip-path="url(#18)"><g clip-path="url(#19)"><path transform="matrix(1 0 0 -1 0 1160)" d="M485 1072L497 1060L497 1060L497 1072L497 1072L485 1072z" stroke="none" fill="#C19F67" fill-rule="winding" /></g></g><g clip-path="url(#20)"><path transform="matrix(1 0 0 -1 0 1160)" d="M15 1048L155 1048L155 1048L155 1024L155 1024L15 1024z" stroke="none" fill="#284967" fill-rule="winding" /></g><g clip-path="url(#21)"><g clip-path="url(#22)"></g></g><g clip-path="url(#23)"></g><g clip-path="url(#24)"><g clip-path="url(#25)"></g></g><g clip-path="url(#26)"></g><g clip-path="url(#27)"><g clip-path="url(#28)"></g></g><g clip-path="url(#29)"><g clip-path="url(#30)"><g clip-path="url(#31)"><path transform="matrix(1 0 0 -1 0 1160)" d="M127.2764 1049.132L146.3683 1068.224L146.3683 1068.224L181.7236 1032.868L181.7236 1032.868L162.6317 1013.776z" stroke="none" fill="#284967" fill-rule="winding" /><path transform="matrix(1 0 0 -1 0 1160)" d="M127.2764 1049.132L146.3683 1068.224L146.3683 1068.224L164.7531 1049.839L164.7531 1049.839L145.6612 1030.747z" stroke="none" fill="#FFFFFF" fill-rule="winding" /><path transform="matrix(1 0 0 -1 0 1160)" d="M127.2764 1049.132L145.6612 1067.516L145.6612 1067.516L181.0165 1032.161L181.0165 1032.161L162.6317 1013.776z" stroke="none" fill="#FFFFFF" fill-rule="winding" /></g></g></g><g clip-path="url(#32)"></g><g clip-path="url(#33)"><g clip-path="url(#34)"></g></g><g clip-path="url(#35)"><g clip-path="url(#36)"><g clip-path="url(#37)"></g></g></g><g clip-path="url(#38)"></g><g clip-path="url(#39)"><g clip-path="url(#40)"></g></g><g clip-path="url(#41)"></g><g clip-path="url(#42)"><g clip-path="url(#43)"><path transform="matrix(1 0 0 -1 0 1160)" d="M107.3475 1050.203L112.2972 1055.152L112.2972 1055.152L113.7114 1053.738L113.7114 1053.738L108.7617 1048.789z" stroke="none" fill="#FFFFFF" fill-rule="winding" /><path transform="matrix(1 0 0 -1 0 1160)" d="M141.2886 1016.262L146.2383 1021.211L146.2383 1021.211L147.6525 1019.797L147.6525 1019.797L142.7028 1014.847z" stroke="none" fill="#FFFFFF" fill-rule="winding" /><path transform="matrix(1 0 0 -1 0 1160)" d="M107.3475 1050.203L108.7617 1051.617L108.7617 1051.617L144.117 1016.262L144.117 1016.262L142.7028 1014.847z" stroke="none" fill="#FFFFFF" fill-rule="winding" /><path transform="matrix(1 0 0 -1 0 1160)" d="M110.883 1053.738L112.2972 1055.152L112.2972 1055.152L147.6525 1019.797L147.6525 1019.797L146.2383 1018.383z" stroke="none" fill="#FFFFFF" fill-rule="winding" /></g></g><g clip-path="url(#44)"></g><g clip-path="url(#45)"><g clip-path="url(#46)"><path transform="matrix(1 0 0 -1 0 1160)" d="M15 1024L31 1015L31 1015L31 1024L31 1024L15 1024z" stroke="none" fill="#00213F" fill-rule="winding" /></g></g><g clip-path="url(#47)"><path transform="matrix(1 0 0 -1 0 1160)" d="M31 1024L800 1024L800 1024L800 1023L800 1023L31 1023z" stroke="none" fill="#284967" fill-rule="winding" /></g><g clip-path="url(#48)"><g clip-path="url(#49)"></g></g><g clip-path="url(#50)"></g><g clip-path="url(#51)"><g clip-path="url(#52)"></g></g><g clip-path="url(#53)"></g><g clip-path="url(#54)"><g clip-path="url(#55)"></g></g><g clip-path="url(#56)"></g><g clip-path="url(#57)"><g clip-path="url(#58)"></g></g><g clip-path="url(#59)"></g><g clip-path="url(#60)"><g clip-path="url(#61)"></g></g><g clip-path="url(#62)"></g><g clip-path="url(#63)"><g clip-path="url(#64)"></g></g><g clip-path="url(#65)"></g><g clip-path="url(#66)"><g clip-path="url(#67)"></g></g><g clip-path="url(#68)"></g><g clip-path="url(#69)"><g clip-path="url(#70)"></g></g><g clip-path="url(#71)"><path transform="matrix(1 0 0 -1 0 1160)" d="M15 896L155 896L155 896L155 872L155 872L15 872z" stroke="none" fill="#284967" fill-rule="winding" /></g><g clip-path="url(#72)"><g clip-path="url(#73)"></g></g><g clip-path="url(#74)"></g><g clip-path="url(#75)"><g clip-path="url(#76)"></g></g><g clip-path="url(#77)"></g><g clip-path="url(#78)"><g clip-path="url(#79)"></g></g><g clip-path="url(#80)"><g clip-path="url(#81)"><g clip-path="url(#82)"><path transform="matrix(1 0 0 -1 0 1160)" d="M127.2764 897.1317L146.3683 916.2236L146.3683 916.2236L181.7236 880.8683L181.7236 880.8683L162.6317 861.7764z" stroke="none" fill="#284967" fill-rule="winding" /><path transform="matrix(1 0 0 -1 0 1160)" d="M127.2764 897.1317L146.3683 916.2236L146.3683 916.2236L164.7531 897.8388L164.7531 897.8388L145.6612 878.7469z" stroke="none" fill="#FFFFFF" fill-rule="winding" /><path transform="matrix(1 0 0 -1 0 1160)" d="M127.2764 897.1317L145.6612 915.5165L145.6612 915.5165L181.0165 880.1611L181.0165 880.1611L162.6317 861.7764z" stroke="none" fill="#FFFFFF" fill-rule="winding" /></g></g></g><g clip-path="url(#83)"></g><g clip-path="url(#84)"><g clip-path="url(#85)"></g></g><g clip-path="url(#86)"><g clip-path="url(#87)"><g clip-path="url(#88)"></g></g></g><g clip-path="url(#89)"></g><g clip-path="url(#90)"><g clip-path="url(#91)"></g></g><g clip-path="url(#92)"></g><g clip-path="url(#93)"><g clip-path="url(#94)"><path transform="matrix(1 0 0 -1 0 1160)" d="M107.3475 898.2028L112.2972 903.1525L112.2972 903.1525L113.7114 901.7383L113.7114 901.7383L108.7617 896.7886z" stroke="none" fill="#FFFFFF" fill-rule="winding" /><path transform="matrix(1 0 0 -1 0 1160)" d="M141.2886 864.2617L146.2383 869.2114L146.2383 869.2114L147.6525 867.7972L147.6525 867.7972L142.7028 862.8474z" stroke="none" fill="#FFFFFF" fill-rule="winding" /><path transform="matrix(1 0 0 -1 0 1160)" d="M107.3475 898.2028L108.7617 899.6169L108.7617 899.6169L144.117 864.2617L144.117 864.2617L142.7028 862.8474z" stroke="none" fill="#FFFFFF" fill-rule="winding" /><path transform="matrix(1 0 0 -1 0 1160)" d="M110.883 901.7383L112.2972 903.1525L112.2972 903.1525L147.6525 867.7972L147.6525 867.7972L146.2383 866.3829z" stroke="none" fill="#FFFFFF" fill-rule="winding" /></g></g><g clip-path="url(#95)"></g><g clip-path="url(#96)"><g clip-path="url(#97)"><path transform="matrix(1 0 0 -1 0 1160)" d="M15 872L31 863L31 863L31 872L31 872L15 872z" stroke="none" fill="#00213F" fill-rule="winding" /></g></g><g clip-path="url(#98)"><path transform="matrix(1 0 0 -1 0 1160)" d="M31 872L800 872L800 872L800 871L800 871L31 871z" stroke="none" fill="#284967" fill-rule="winding" /></g><g clip-path="url(#99)"><g clip-path="url(#100)"></g></g><g clip-path="url(#101)"></g><g clip-path="url(#102)"><g clip-path="url(#103)"></g></g><g clip-path="url(#104)"></g><g clip-path="url(#105)"><g clip-path="url(#106)"></g></g><g clip-path="url(#107)"></g><g clip-path="url(#108)"><g clip-path="url(#109)"></g></g><g clip-path="url(#110)"></g><g clip-path="url(#111)"><g clip-path="url(#112)"></g></g><g clip-path="url(#113)"></g><g clip-path="url(#114)"><g clip-path="url(#115)"></g></g><g clip-path="url(#116)"></g><g clip-path="url(#117)"><g clip-path="url(#118)"></g></g><g clip-path="url(#119)"></g><g clip-path="url(#120)"><g clip-path="url(#121)"></g></g><g clip-path="url(#122)"></g><g clip-path="url(#123)"><g clip-path="url(#124)"></g></g><g clip-path="url(#125)"></g><g clip-path="url(#126)"><g clip-path="url(#127)"></g></g><g clip-path="url(#128)"></g><g clip-path="url(#129)"><g clip-path="url(#130)"></g></g><g clip-path="url(#131)"></g><g clip-path="url(#132)"><g clip-path="url(#133)"></g></g><g clip-path="url(#134)"></g><g clip-path="url(#135)"><g clip-path="url(#136)"></g></g><g clip-path="url(#137)"></g><g clip-path="url(#138)"><g clip-path="url(#139)"></g></g><g clip-path="url(#140)"></g><g clip-path="url(#141)"><g clip-path="url(#142)"></g></g><g clip-path="url(#143)"></g><g clip-path="url(#144)"><g clip-path="url(#145)"></g></g><g clip-path="url(#146)"></g><g clip-path="url(#147)"><g clip-path="url(#148)"></g></g><g clip-path="url(#149)"></g><g clip-path="url(#150)"><g clip-path="url(#151)"></g></g><g clip-path="url(#152)"></g><g clip-path="url(#153)"><g clip-path="url(#154)"></g></g><g clip-path="url(#155)"></g><g clip-path="url(#156)"><g clip-path="url(#157)"></g></g><g clip-path="url(#158)"></g><g clip-path="url(#159)"><g clip-path="url(#160)"></g></g><g clip-path="url(#161)"></g><g clip-path="url(#162)"><g clip-path="url(#163)"></g></g><g clip-path="url(#164)"></g><g clip-path="url(#165)"><g clip-path="url(#166)"></g></g><g clip-path="url(#167)"></g><g clip-path="url(#168)"><g clip-path="url(#169)"></g></g><g clip-path="url(#170)"></g><g clip-path="url(#171)"><g clip-path="url(#172)"></g></g><g clip-path="url(#173)"></g><g clip-path="url(#174)"><g clip-path="url(#175)"></g></g><g clip-path="url(#176)"></g><g clip-path="url(#177)"><g clip-path="url(#178)"></g></g><g clip-path="url(#179)"></g><g clip-path="url(#180)"><g clip-path="url(#181)"></g></g><g clip-path="url(#182)"><path transform="matrix(1 0 0 -1 0 1160)" d="M15 776L155 776L155 776L155 752L155 752L15 752z" stroke="none" fill="#284967" fill-rule="winding" /></g><g clip-path="url(#183)"><g clip-path="url(#184)"></g></g><g clip-path="url(#185)"></g><g clip-path="url(#186)"><g clip-path="url(#187)"></g></g><g clip-path="url(#188)"></g><g clip-path="url(#189)"><g clip-path="url(#190)"></g></g><g clip-path="url(#191)"><g clip-path="url(#192)"><g clip-path="url(#193)"><path transform="matrix(1 0 0 -1 0 1160)" d="M127.2764 777.1317L146.3683 796.2236L146.3683 796.2236L181.7236 760.8683L181.7236 760.8683L162.6317 741.7764z" stroke="none" fill="#284967" fill-rule="winding" /><path transform="matrix(1 0 0 -1 0 1160)" d="M127.2764 777.1317L146.3683 796.2236L146.3683 796.2236L164.7531 777.8388L164.7531 777.8388L145.6612 758.7469z" stroke="none" fill="#FFFFFF" fill-rule="winding" /><path transform="matrix(1 0 0 -1 0 1160)" d="M127.2764 777.1317L145.6612 795.5165L145.6612 795.5165L181.0165 760.1611L181.0165 760.1611L162.6317 741.7764z" stroke="none" fill="#FFFFFF" fill-rule="winding" /></g></g></g><g clip-path="url(#194)"></g><g clip-path="url(#195)"><g clip-path="url(#196)"></g></g><g clip-path="url(#197)"><g clip-path="url(#198)"><g clip-path="url(#199)"></g></g></g><g clip-path="url(#200)"></g><g clip-path="url(#201)"><g clip-path="url(#202)"></g></g><g clip-path="url(#203)"></g><g clip-path="url(#204)"><g clip-path="url(#205)"><path transform="matrix(1 0 0 -1 0 1160)" d="M107.3475 778.2028L112.2972 783.1525L112.2972 783.1525L113.7114 781.7383L113.7114 781.7383L108.7617 776.7886z" stroke="none" fill="#FFFFFF" fill-rule="winding" /><path transform="matrix(1 0 0 -1 0 1160)" d="M141.2886 744.2617L146.2383 749.2114L146.2383 749.2114L147.6525 747.7972L147.6525 747.7972L142.7028 742.8474z" stroke="none" fill="#FFFFFF" fill-rule="winding" /><path transform="matrix(1 0 0 -1 0 1160)" d="M107.3475 778.2028L108.7617 779.6169L108.7617 779.6169L144.117 744.2617L144.117 744.2617L142.7028 742.8474z" stroke="none" fill="#FFFFFF" fill-rule="winding" /><path transform="matrix(1 0 0 -1 0 1160)" d="M110.883 781.7383L112.2972 783.1525L112.2972 783.1525L147.6525 747.7972L147.6525 747.7972L146.2383 746.3829z" stroke="none" fill="#FFFFFF" fill-rule="winding" /></g></g><g clip-path="url(#206)"></g><g clip-path="url(#207)"><g clip-path="url(#208)"><path transform="matrix(1 0 0 -1 0 1160)" d="M15 752L31 743L31 743L31 752L31 752L15 752z" stroke="none" fill="#00213F" fill-rule="winding" /></g></g><g clip-path="url(#209)"><path transform="matrix(1 0 0 -1 0 1160)" d="M31 752L800 752L800 752L800 751L800 751L31 751z" stroke="none" fill="#284967" fill-rule="winding" /></g><g clip-path="url(#210)"><g clip-path="url(#211)"></g></g><g clip-path="url(#212)"></g><g clip-path="url(#213)"><g clip-path="url(#214)"></g></g><g clip-path="url(#215)"></g><g clip-path="url(#216)"><g clip-path="url(#217)"></g></g><g clip-path="url(#218)"></g><g clip-path="url(#219)"><g clip-path="url(#220)"></g></g><g clip-path="url(#221)"></g><g clip-path="url(#222)"><g clip-path="url(#223)"></g></g><g clip-path="url(#224)"></g><g clip-path="url(#225)"><g clip-path="url(#226)"></g></g><g clip-path="url(#227)"></g><g clip-path="url(#228)"><g clip-path="url(#229)"></g></g><g clip-path="url(#230)"></g><g clip-path="url(#231)"><g clip-path="url(#232)"></g></g><g clip-path="url(#233)"></g><g clip-path="url(#234)"><g clip-path="url(#235)"></g></g><g clip-path="url(#236)"></g><g clip-path="url(#237)"><g clip-path="url(#238)"></g></g><g clip-path="url(#239)"></g><g clip-path="url(#240)"><g clip-path="url(#241)"></g></g><g clip-path="url(#242)"></g><g clip-path="url(#243)"><g clip-path="url(#244)"></g></g><g clip-path="url(#245)"><path transform="matrix(1 0 0 -1 0 1160)" d="M15 498L155 498L155 498L155 474L155 474L15 474z" stroke="none" fill="#284967" fill-rule="winding" /></g><g clip-path="url(#246)"><g clip-path="url(#247)"></g></g><g clip-path="url(#248)"></g><g clip-path="url(#249)"><g clip-path="url(#250)"></g></g><g clip-path="url(#251)"></g><g clip-path="url(#252)"><g clip-path="url(#253)"></g></g><g clip-path="url(#254)"><g clip-path="url(#255)"><g clip-path="url(#256)"><path transform="matrix(1 0 0 -1 0 1160)" d="M127.2764 499.1317L146.3683 518.2236L146.3683 518.2236L181.7236 482.8683L181.7236 482.8683L162.6317 463.7764z" stroke="none" fill="#284967" fill-rule="winding" /><path transform="matrix(1 0 0 -1 0 1160)" d="M127.2764 499.1317L146.3683 518.2236L146.3683 518.2236L164.7531 499.8388L164.7531 499.8388L145.6612 480.7469z" stroke="none" fill="#FFFFFF" fill-rule="winding" /><path transform="matrix(1 0 0 -1 0 1160)" d="M127.2764 499.1317L145.6612 517.5165L145.6612 517.5165L181.0165 482.1612L181.0165 482.1612L162.6317 463.7764z" stroke="none" fill="#FFFFFF" fill-rule="winding" /></g></g></g><g clip-path="url(#257)"></g><g clip-path="url(#258)"><g clip-path="url(#259)"></g></g><g clip-path="url(#260)"><g clip-path="url(#261)"><g clip-path="url(#262)"></g></g></g><g clip-path="url(#263)"></g><g clip-path="url(#264)"><g clip-path="url(#265)"></g></g><g clip-path="url(#266)"></g><g clip-path="url(#267)"><g clip-path="url(#268)"><path transform="matrix(1 0 0 -1 0 1160)" d="M107.3475 500.2028L112.2972 505.1526L112.2972 505.1526L113.7114 503.7383L113.7114 503.7383L108.7617 498.7886z" stroke="none" fill="#FFFFFF" fill-rule="winding" /><path transform="matrix(1 0 0 -1 0 1160)" d="M141.2886 466.2617L146.2383 471.2115L146.2383 471.2115L147.6525 469.7972L147.6525 469.7972L142.7028 464.8475z" stroke="none" fill="#FFFFFF" fill-rule="winding" /><path transform="matrix(1 0 0 -1 0 1160)" d="M107.3475 500.2028L108.7617 501.617L108.7617 501.617L144.117 466.2617L144.117 466.2617L142.7028 464.8475z" stroke="none" fill="#FFFFFF" fill-rule="winding" /><path transform="matrix(1 0 0 -1 0 1160)" d="M110.883 503.7383L112.2972 505.1526L112.2972 505.1526L147.6525 469.7972L147.6525 469.7972L146.2383 468.383z" stroke="none" fill="#FFFFFF" fill-rule="winding" /></g></g><g clip-path="url(#269)"></g><g clip-path="url(#270)"><g clip-path="url(#271)"><path transform="matrix(1 0 0 -1 0 1160)" d="M15 474L31 465L31 465L31 474L31 474L15 474z" stroke="none" fill="#00213F" fill-rule="winding" /></g></g><g clip-path="url(#272)"><path transform="matrix(1 0 0 -1 0 1160)" d="M31 474L800 474L800 474L800 473L800 473L31 473z" stroke="none" fill="#284967" fill-rule="winding" /><path transform="matrix(1 0 0 -1 0 1160)" d="M15 356L155 356L155 356L155 332L155 332L15 332z" stroke="none" fill="#284967" fill-rule="winding" /></g><g clip-path="url(#273)"><g clip-path="url(#274)"></g></g><g clip-path="url(#275)"></g><g clip-path="url(#276)"><g clip-path="url(#277)"></g></g><g clip-path="url(#278)"></g><g clip-path="url(#279)"><g clip-path="url(#280)"></g></g><g clip-path="url(#281)"><g clip-path="url(#282)"><g clip-path="url(#283)"><path transform="matrix(1 0 0 -1 0 1160)" d="M127.2764 357.1317L146.3683 376.2236L146.3683 376.2236L181.7236 340.8683L181.7236 340.8683L162.6317 321.7764z" stroke="none" fill="#284967" fill-rule="winding" /><path transform="matrix(1 0 0 -1 0 1160)" d="M127.2764 357.1317L146.3683 376.2236L146.3683 376.2236L164.7531 357.8388L164.7531 357.8388L145.6612 338.7469z" stroke="none" fill="#FFFFFF" fill-rule="winding" /><path transform="matrix(1 0 0 -1 0 1160)" d="M127.2764 357.1317L145.6612 375.5165L145.6612 375.5165L181.0165 340.1612L181.0165 340.1612L162.6317 321.7764z" stroke="none" fill="#FFFFFF" fill-rule="winding" /></g></g></g><g clip-path="url(#284)"></g><g clip-path="url(#285)"><g clip-path="url(#286)"></g></g><g clip-path="url(#287)"><g clip-path="url(#288)"><g clip-path="url(#289)"></g></g></g><g clip-path="url(#290)"></g><g clip-path="url(#291)"><g clip-path="url(#292)"></g></g><g clip-path="url(#293)"></g><g clip-path="url(#294)"><g clip-path="url(#295)"><path transform="matrix(1 0 0 -1 0 1160)" d="M107.3475 358.2028L112.2972 363.1526L112.2972 363.1526L113.7114 361.7383L113.7114 361.7383L108.7617 356.7886z" stroke="none" fill="#FFFFFF" fill-rule="winding" /><path transform="matrix(1 0 0 -1 0 1160)" d="M141.2886 324.2617L146.2383 329.2115L146.2383 329.2115L147.6525 327.7972L147.6525 327.7972L142.7028 322.8475z" stroke="none" fill="#FFFFFF" fill-rule="winding" /><path transform="matrix(1 0 0 -1 0 1160)" d="M107.3475 358.2028L108.7617 359.617L108.7617 359.617L144.117 324.2617L144.117 324.2617L142.7028 322.8475z" stroke="none" fill="#FFFFFF" fill-rule="winding" /><path transform="matrix(1 0 0 -1 0 1160)" d="M110.883 361.7383L112.2972 363.1526L112.2972 363.1526L147.6525 327.7972L147.6525 327.7972L146.2383 326.383z" stroke="none" fill="#FFFFFF" fill-rule="winding" /></g></g><g clip-path="url(#296)"></g><g clip-path="url(#297)"><g clip-path="url(#298)"><path transform="matrix(1 0 0 -1 0 1160)" d="M15 332L31 323L31 323L31 332L31 332L15 332z" stroke="none" fill="#00213F" fill-rule="winding" /></g></g><g clip-path="url(#299)"><path transform="matrix(1 0 0 -1 0 1160)" d="M31 332L800 332L800 332L800 331L800 331L31 331z" stroke="none" fill="#284967" fill-rule="winding" /><path transform="matrix(1 0 0 -1 0 1160)" d="M15 220L155 220L155 220L155 196L155 196L15 196z" stroke="none" fill="#284967" fill-rule="winding" /></g><g clip-path="url(#300)"><g clip-path="url(#301)"></g></g><g clip-path="url(#302)"></g><g clip-path="url(#303)"><g clip-path="url(#304)"></g></g><g clip-path="url(#305)"></g><g clip-path="url(#306)"><g clip-path="url(#307)"></g></g><g clip-path="url(#308)"><g clip-path="url(#309)"><g clip-path="url(#310)"><path transform="matrix(1 0 0 -1 0 1160)" d="M127.2764 221.1317L146.3683 240.2236L146.3683 240.2236L181.7236 204.8683L181.7236 204.8683L162.6317 185.7764z" stroke="none" fill="#284967" fill-rule="winding" /><path transform="matrix(1 0 0 -1 0 1160)" d="M127.2764 221.1317L146.3683 240.2236L146.3683 240.2236L164.7531 221.8388L164.7531 221.8388L145.6612 202.7469z" stroke="none" fill="#FFFFFF" fill-rule="winding" /><path transform="matrix(1 0 0 -1 0 1160)" d="M127.2764 221.1317L145.6612 239.5165L145.6612 239.5165L181.0165 204.1611L181.0165 204.1611L162.6317 185.7764z" stroke="none" fill="#FFFFFF" fill-rule="winding" /></g></g></g><g clip-path="url(#311)"></g><g clip-path="url(#312)"><g clip-path="url(#313)"></g></g><g clip-path="url(#314)"><g clip-path="url(#315)"><g clip-path="url(#316)"></g></g></g><g clip-path="url(#317)"></g><g clip-path="url(#318)"><g clip-path="url(#319)"></g></g><g clip-path="url(#320)"></g><g clip-path="url(#321)"><g clip-path="url(#322)"><path transform="matrix(1 0 0 -1 0 1160)" d="M107.3475 222.2028L112.2972 227.1526L112.2972 227.1526L113.7114 225.7384L113.7114 225.7384L108.7617 220.7886z" stroke="none" fill="#FFFFFF" fill-rule="winding" /><path transform="matrix(1 0 0 -1 0 1160)" d="M141.2886 188.2617L146.2383 193.2114L146.2383 193.2114L147.6525 191.7972L147.6525 191.7972L142.7028 186.8475z" stroke="none" fill="#FFFFFF" fill-rule="winding" /><path transform="matrix(1 0 0 -1 0 1160)" d="M107.3475 222.2028L108.7617 223.617L108.7617 223.617L144.117 188.2617L144.117 188.2617L142.7028 186.8475z" stroke="none" fill="#FFFFFF" fill-rule="winding" /><path transform="matrix(1 0 0 -1 0 1160)" d="M110.883 225.7384L112.2972 227.1526L112.2972 227.1526L147.6525 191.7972L147.6525 191.7972L146.2383 190.383z" stroke="none" fill="#FFFFFF" fill-rule="winding" /></g></g><g clip-path="url(#323)"></g><g clip-path="url(#324)"><g clip-path="url(#325)"><path transform="matrix(1 0 0 -1 0 1160)" d="M15 196L31 187L31 187L31 196L31 196L15 196z" stroke="none" fill="#00213F" fill-rule="winding" /></g></g><g clip-path="url(#326)"><path transform="matrix(1 0 0 -1 0 1160)" d="M31 196L800 196L800 196L800 195L800 195L31 195z" stroke="none" fill="#284967" fill-rule="winding" /><path transform="matrix(1 0 0 -1 0 1160)" d="M15 129L155 129L155 129L155 105L155 105L15 105z" stroke="none" fill="#284967" fill-rule="winding" /></g><g clip-path="url(#327)"><g clip-path="url(#328)"></g></g><g clip-path="url(#329)"></g><g clip-path="url(#330)"><g clip-path="url(#331)"></g></g><g clip-path="url(#332)"></g><g clip-path="url(#333)"><g clip-path="url(#334)"></g></g><g clip-path="url(#335)"><g clip-path="url(#336)"><g clip-path="url(#337)"><path transform="matrix(1 0 0 -1 0 1160)" d="M127.2764 130.1317L146.3683 149.2236L146.3683 149.2236L181.7236 113.8683L181.7236 113.8683L162.6317 94.77637z" stroke="none" fill="#284967" fill-rule="winding" /><path transform="matrix(1 0 0 -1 0 1160)" d="M127.2764 130.1317L146.3683 149.2236L146.3683 149.2236L164.7531 130.8388L164.7531 130.8388L145.6612 111.7469z" stroke="none" fill="#FFFFFF" fill-rule="winding" /><path transform="matrix(1 0 0 -1 0 1160)" d="M127.2764 130.1317L145.6612 148.5165L145.6612 148.5165L181.0165 113.1611L181.0165 113.1611L162.6317 94.77637z" stroke="none" fill="#FFFFFF" fill-rule="winding" /></g></g></g><g clip-path="url(#338)"></g><g clip-path="url(#339)"><g clip-path="url(#340)"></g></g><g clip-path="url(#341)"><g clip-path="url(#342)"><g clip-path="url(#343)"></g></g></g><g clip-path="url(#344)"></g><g clip-path="url(#345)"><g clip-path="url(#346)"></g></g><g clip-path="url(#347)"></g><g clip-path="url(#348)"><g clip-path="url(#349)"><path transform="matrix(1 0 0 -1 0 1160)" d="M107.3475 131.2028L112.2972 136.1525L112.2972 136.1525L113.7114 134.7383L113.7114 134.7383L108.7617 129.7885z" stroke="none" fill="#FFFFFF" fill-rule="winding" /><path transform="matrix(1 0 0 -1 0 1160)" d="M141.2886 97.26163L146.2383 102.2114L146.2383 102.2114L147.6525 100.7972L147.6525 100.7972L142.7028 95.84742z" stroke="none" fill="#FFFFFF" fill-rule="winding" /><path transform="matrix(1 0 0 -1 0 1160)" d="M107.3475 131.2028L108.7617 132.617L108.7617 132.617L144.117 97.26163L144.117 97.26163L142.7028 95.84742z" stroke="none" fill="#FFFFFF" fill-rule="winding" /><path transform="matrix(1 0 0 -1 0 1160)" d="M110.883 134.7383L112.2972 136.1525L112.2972 136.1525L147.6525 100.7972L147.6525 100.7972L146.2383 99.38295z" stroke="none" fill="#FFFFFF" fill-rule="winding" /></g></g><g clip-path="url(#350)"></g><g clip-path="url(#351)"><g clip-path="url(#352)"><path transform="matrix(1 0 0 -1 0 1160)" d="M15 105L31 96L31 96L31 105L31 105L15 105z" stroke="none" fill="#00213F" fill-rule="winding" /></g></g><g clip-path="url(#353)"><path transform="matrix(1 0 0 -1 0 1160)" d="M31 105L800 105L800 105L800 104L800 104L31 104z" stroke="none" fill="#284967" fill-rule="winding" /></g><g clip-path="url(#354)"><g clip-path="url(#355)"><g transform="matrix(1 0 0 1 51 981)"><g transform="matrix(1 0 0 1 0 0)"><image x="0" y="0" xlink:href="img_01.png" width="86" height="33" /></g></g></g></g><g clip-path="url(#356)"></g><g clip-path="url(#357)"><g clip-path="url(#358)"><g transform="matrix(1 0 0 1 150 981)"><g transform="matrix(1 0 0 1 0 0)"><image x="0" y="0" xlink:href="img_02.png" width="99" height="33" /></g></g></g></g><g clip-path="url(#359)"></g><g clip-path="url(#360)"><g clip-path="url(#361)"><g transform="matrix(1 0 0 1 262 981)"><g transform="matrix(1 0 0 1 0 0)"><image x="0" y="0" xlink:href="img_03.png" width="175" height="33" /></g></g></g></g><g clip-path="url(#362)"></g><g clip-path="url(#363)"><g clip-path="url(#364)"><g transform="matrix(0.9999999 0 0 1 450 981)"><g transform="matrix(1 0 0 1 0 0)"><image x="0" y="0" xlink:href="img_04.png" width="242" height="33" /></g></g></g></g><g clip-path="url(#365)"></g><g clip-path="url(#366)"><g clip-path="url(#367)"><path transform="matrix(1 0 0 -1 0 1160)" d="M672 1022L780 1022L780 1022L780 878L780 878L672 878z" stroke="none" fill="#FFFFFF" fill-rule="winding" /></g></g><g clip-path="url(#368)"></g><g clip-path="url(#369)"><g clip-path="url(#370)"><g transform="matrix(0.2762148 0 0 0.2769231 672 138.0001)"><g transform="matrix(1 0 0 1 0 0)"><image x="0" y="0" xlink:href="img_05.png" width="391" height="520" /></g></g></g></g><g clip-path="url(#371)"></g></g></g></g></svg>